<?xml version="1.0" encoding="UTF-8" standalone="no"?>
<!DOCTYPE svg PUBLIC "-//W3C//DTD SVG 1.1//EN" "http://www.w3.org/Graphics/SVG/1.1/DTD/svg11.dtd">
<!-- Created with Vectornator (http://vectornator.io/) -->
<svg height="1024.0pt" stroke-miterlimit="10" style="fill-rule:nonzero;clip-rule:evenodd;stroke-linecap:round;stroke-linejoin:round;" version="1.1" viewBox="0 0 1024 1024" width="1024.0pt" xml:space="preserve" xmlns="http://www.w3.org/2000/svg" xmlns:xlink="http://www.w3.org/1999/xlink">
<defs/>
<g id="Layer-1">
<path d="M5.68434e-14 200C5.68434e-14 89.5431 89.5431 5.68434e-14 200 5.68434e-14L824 5.68434e-14C934.457 5.68434e-14 1024 89.5431 1024 200L1024 824C1024 934.457 934.457 1024 824 1024L200 1024C89.5431 1024 5.68434e-14 934.457 5.68434e-14 824L5.68434e-14 200Z" fill="#f0eee0" fill-rule="nonzero" opacity="1" stroke="none"/>
<g opacity="1">
<g opacity="1">
<path d="M90.264 564.968C113.994 564.968 131.573 552.663 138.018 532.448L116.924 524.831C112.53 538.893 103.155 545.925 89.9711 545.925C71.2211 545.925 59.5024 531.276 59.5024 507.839C59.5024 484.401 71.5141 469.753 89.9711 469.753C103.155 469.753 112.53 476.784 116.924 490.847L138.018 483.23C131.573 462.429 113.994 450.71 90.264 450.71C58.3305 450.71 36.6509 473.855 36.6509 507.839C36.6509 542.409 58.0375 564.968 90.264 564.968Z" fill="#23221e" fill-rule="nonzero" opacity="1" stroke="none"/>
<path d="M228.838 475.612L145.928 475.612L145.928 494.655L176.983 494.655L176.983 563.503L198.077 563.503L198.077 494.655L228.838 494.655L228.838 475.612Z" fill="#23221e" fill-rule="nonzero" opacity="1" stroke="none"/>
<path d="M316.436 545.339C312.92 545.339 311.162 543.581 311.162 540.065L311.162 503.444C311.162 485.28 297.979 474.147 275.713 474.147C260.186 474.147 247.295 479.421 237.041 489.089L249.639 502.272C256.67 495.241 265.166 491.433 274.541 491.433C285.088 491.433 291.534 495.534 291.534 501.686C291.534 507.546 284.209 509.011 272.784 510.476C256.084 512.526 234.991 516.921 234.991 539.186C234.991 554.714 246.709 564.968 263.702 564.968C276.592 564.968 288.018 559.401 294.463 550.612C295.928 559.987 301.494 564.089 312.334 564.089C316.143 564.089 318.487 563.796 319.951 563.503L319.951 545.339L316.436 545.339ZM268.096 548.268C260.186 548.268 255.498 544.167 255.498 537.429C255.498 527.761 265.166 526.296 275.127 524.538C282.452 523.366 287.432 522.487 290.948 520.436L290.948 529.518C290.948 539.772 280.694 548.268 268.096 548.268Z" fill="#23221e" fill-rule="nonzero" opacity="1" stroke="none"/>
<path d="M387.334 474.147C375.03 474.147 364.776 479.421 358.038 488.796L356.866 475.612L338.116 475.612L338.116 592.8L359.209 592.8L359.209 552.37C365.948 560.573 375.616 564.968 387.334 564.968C409.6 564.968 425.127 546.804 425.127 519.558C425.127 492.019 410.186 474.147 387.334 474.147ZM380.889 547.39C366.827 547.39 358.33 536.55 358.33 519.558C358.33 502.565 366.827 491.726 380.889 491.726C394.952 491.726 403.741 502.565 403.741 519.558C403.741 536.55 394.952 547.39 380.889 547.39Z" fill="#23221e" fill-rule="nonzero" opacity="1" stroke="none"/>
<path d="M545.537 475.612L545.537 544.46L515.948 544.46L515.948 475.612L494.854 475.612L494.854 544.46L465.264 544.46L465.264 475.612L444.17 475.612L444.17 563.503L566.631 563.503L566.631 475.612L545.537 475.612Z" fill="#23221e" fill-rule="nonzero" opacity="1" stroke="none"/>
<path d="M651.299 475.612L612.627 533.62L612.627 475.612L591.827 475.612L591.827 563.503L612.92 563.503L651.885 505.495L651.885 563.503L672.393 563.503L672.393 475.612L651.299 475.612Z" fill="#23221e" fill-rule="nonzero" opacity="1" stroke="none"/>
<path d="M757.061 475.612L757.061 509.011L718.975 509.011L718.975 475.612L697.881 475.612L697.881 563.503L718.975 563.503L718.975 528.347L757.061 528.347L757.061 563.503L778.155 563.503L778.155 475.612L757.061 475.612Z" fill="#23221e" fill-rule="nonzero" opacity="1" stroke="none"/>
<path d="M877.764 545.339C874.248 545.339 872.491 543.581 872.491 540.065L872.491 503.444C872.491 485.28 859.307 474.147 837.041 474.147C821.514 474.147 808.623 479.421 798.37 489.089L810.967 502.272C817.998 495.241 826.495 491.433 835.87 491.433C846.416 491.433 852.862 495.534 852.862 501.686C852.862 507.546 845.537 509.011 834.112 510.476C817.413 512.526 796.319 516.921 796.319 539.186C796.319 554.714 808.038 564.968 825.03 564.968C837.92 564.968 849.346 559.401 855.791 550.612C857.256 559.987 862.823 564.089 873.662 564.089C877.471 564.089 879.815 563.796 881.28 563.503L881.28 545.339L877.764 545.339ZM829.424 548.268C821.514 548.268 816.827 544.167 816.827 537.429C816.827 527.761 826.495 526.296 836.455 524.538C843.78 523.366 848.76 522.487 852.276 520.436L852.276 529.518C852.276 539.772 842.022 548.268 829.424 548.268Z" fill="#23221e" fill-rule="nonzero" opacity="1" stroke="none"/>
</g>
<g opacity="1">
<path d="M987.349 474.56L944.38 474.56L944.38 431.2L924.068 431.2L924.068 474.56L881.099 474.56L881.099 494.091L924.068 494.091L924.068 537.45L944.38 537.45L944.38 494.091L987.349 494.091L987.349 474.56Z" fill="#fd890a" fill-rule="nonzero" opacity="1" stroke="none"/>
</g>
</g>
</g>
</svg>
